<svg xmlns="http://www.w3.org/2000/svg" width="8000" height="4475.001" viewBox="0 0 8000 4475.001">
  <path id="빼기_1" data-name="빼기 1" d="M8000,4475H0V0H8000V4475ZM3623.516,2151a115.61,115.61,0,0,0-44.005,8.225,98.832,98.832,0,0,0-17.4,9.224,94.086,94.086,0,0,0-14.269,11.691,104.212,104.212,0,0,0-13.288,16.267,101.709,101.709,0,0,0-9.3,17.632,99.319,99.319,0,0,0-5.468,18.249,94.165,94.165,0,0,0-1.788,18.117,76.751,76.751,0,0,0,5.713,29.912,64.08,64.08,0,0,0,16.025,22.728,71.228,71.228,0,0,0,24.659,14.446,95.651,95.651,0,0,0,31.624,5.06,110.036,110.036,0,0,0,24.244-2.578,88.613,88.613,0,0,0,20.435-7.292,84.963,84.963,0,0,0,16.952-11.346,96.1,96.1,0,0,0,13.8-14.739l-38.07-30.08c-9.333,11.543-19.788,17.154-31.959,17.154a27.53,27.53,0,0,1-10.186-1.862,23.26,23.26,0,0,1-8.2-5.452c-4.882-5.036-7.462-12.258-7.462-20.886a49.935,49.935,0,0,1,3.555-18.329,48.251,48.251,0,0,1,4.278-8.307,43.876,43.876,0,0,1,5.8-7.2,37.519,37.519,0,0,1,27.026-11.281,30.043,30.043,0,0,1,8.761,1.237,23.262,23.262,0,0,1,13.116,9.965,30.957,30.957,0,0,1,3.738,8.773l49.115-21.385a60.917,60.917,0,0,0-8.423-19.784,57.967,57.967,0,0,0-14.549-15.113,66.2,66.2,0,0,0-19.923-9.65A86.132,86.132,0,0,0,3623.516,2151Zm408.664,3.525,22.326,165.675h52.641L4218.3,2154.525H4156.5l-56.869,92.354-7.049-92.354Zm336.051,122.2-11.514,42.3h54.52l11.514-42.3Zm-145-122.2-44.18,164.5h141.469l11.986-45.12h-87.42l4.935-17.859H4330.4l10.577-39.714H4260.6l4.465-16.687h86.247l12.219-45.12Zm-321.95,142.411h57.574l2.82,22.089H4020.2l-24.91-165.674h-54.52L3829.66,2315.19l-21.2-50.92a87.054,87.054,0,0,0,17.214-7.52,61.917,61.917,0,0,0,12.631-9.636,54.9,54.9,0,0,0,7.257-8.93,52.006,52.006,0,0,0,4.965-9.811,56.453,56.453,0,0,0,2.849-10.6,68.134,68.134,0,0,0,.911-11.31,54.9,54.9,0,0,0-3.026-18.564,42.2,42.2,0,0,0-9.9-15.744,45.89,45.89,0,0,0-9.87-7.414,65.3,65.3,0,0,0-13.218-5.541,102.933,102.933,0,0,0-16.832-3.47,166.307,166.307,0,0,0-20.71-1.2h-64.155l-44.18,164.5h54.99l12.691-47h13.628l18.331,47H3886.95Zm514.886-98.465c3.858,0,6.842.811,8.87,2.409a7.294,7.294,0,0,1,2.167,2.747,8.562,8.562,0,0,1,.712,3.539,9.3,9.3,0,0,1-2.35,6.184,19.877,19.877,0,0,1-7.11,4.861c-6.3,2.8-15.734,4.8-28.846,6.109l-3.054,2.586-3.525,40.89h32.429l7.286-18.566c19.779-3.222,34.821-10.011,44.709-20.181a46.029,46.029,0,0,0,10.149-15.873,51.33,51.33,0,0,0,3.188-18.231,40.053,40.053,0,0,0-3.819-17.427,39.026,39.026,0,0,0-10.87-13.593,50.991,50.991,0,0,0-17.037-8.835,75.448,75.448,0,0,0-22.325-3.151,104.388,104.388,0,0,0-31.814,4.848,93.063,93.063,0,0,0-26.7,13.483l17.859,39.715a69.689,69.689,0,0,1,16.451-9.017A39.386,39.386,0,0,1,4416.172,2198.471Zm-460.366,59.456h-30.08l25.615-39.95,4.465,39.95Zm-185.415-25.146h-19.974l8.693-32.2h19.5c7.641,0,13.1,1.581,16.217,4.7a12.024,12.024,0,0,1,3.523,8.7,15.852,15.852,0,0,1-4.7,11.28,23.573,23.573,0,0,1-9.253,5.435A43.81,43.81,0,0,1,3770.391,2232.781Z"/>
</svg>
