<svg id="logo" xmlns="http://www.w3.org/2000/svg" width="173.089" height="33.958" viewBox="0 0 173.089 33.958">
  <path id="패스_553" data-name="패스 553" d="M182.957,37.3a17.332,17.332,0,0,0,11.526-4.233l-.053-.06-6-4.666a8.186,8.186,0,0,1-4.3,1.333c-2.48,0-3.786-1.387-3.86-3.48h17.452a16.26,16.26,0,0,0,.947-4.84c.187-5.466-2.893-11.279-11.659-11.279a16.412,16.412,0,0,0-16.666,15.806C170.071,32.691,174.878,37.3,182.957,37.3Zm3.493-19.759A2.846,2.846,0,0,1,189.6,20.3a3.466,3.466,0,0,1-.227,1.14h-8.246A5.853,5.853,0,0,1,186.45,17.545Z" transform="translate(-56.785 -3.359)" fill="#fff"/>
  <path id="패스_554" data-name="패스 554" d="M75.2,10.468,70.535,21.9H69.409c-5.193,0-8,2.706-9.479,8.406l-1.753,6.46H47.13l7.106-25.912H65.282l-1.413,5.22A13.672,13.672,0,0,1,75.2,10.468Z" transform="translate(-15.712 -3.489)" fill="#fff"/>
  <path id="패스_555" data-name="패스 555" d="M0,19.665C0,10.786,7.006,0,21.392,0c7.2,0,12.293,3.72,13.679,9.486l-9.959,4.233a5.026,5.026,0,0,0-5.193-3.953c-5.006,0-8.246,4.46-8.246,8.926,0,3.58,2.287,5.58,5.24,5.58a8.21,8.21,0,0,0,6.48-3.393l7.72,5.946c-3.333,4.28-8.193,7.12-15.292,7.12C6.48,33.944,0,28.412,0,19.665Z" fill="#fff"/>
  <path id="패스_556" data-name="패스 556" d="M141.029,24.086,140.3,11.06H128.95l3.573,25.9h10.333l17.759-25.9H148.922Z" transform="translate(-42.989 -3.687)" fill="#fff"/>
  <path id="패스_557" data-name="패스 557" d="M99.076,10.06A42.584,42.584,0,0,0,88.7,11.286l1.027,7.526a29.838,29.838,0,0,1,7.113-1.1c2.773,0,4.086.913,4.086,2.553v.42a7.337,7.337,0,0,1-.173.88l-.093.287H100.6a21.5,21.5,0,0,0-6-.86c-7.5,0-11.873,3.613-11.873,9.153,0,4.526,3.02,7.166,7.1,7.166,3.06,0,5.06-1.253,7.446-3.226v.053l-.667,2.513h10.966l3.88-14.352a14.941,14.941,0,0,0,.48-3.66C111.961,13.353,107.875,10.06,99.076,10.06Zm0,17.539A4.8,4.8,0,0,1,94.8,30.865c-2.107.087-3.106-1.067-3.086-2.48,0-1.653,1.66-2.826,4-2.986a10.706,10.706,0,0,1,3.86.36s-.28,1.047-.507,1.84Z" transform="translate(-27.58 -3.353)" fill="#fff"/>
  <path id="패스_558" data-name="패스 558" d="M251.8,45.793l2.267-8.253H245.25l-2.26,8.253Z" transform="translate(-81.007 -12.515)" fill="#fff"/>
  <path id="패스_559" data-name="패스 559" d="M239.708,10.468,235.042,21.9h-1.153c-5.193,0-8,2.706-9.479,8.406l-1.753,6.46H211.63l7.113-25.912h11.039l-1.413,5.22A13.692,13.692,0,0,1,239.708,10.468Z" transform="translate(-70.552 -3.489)" fill="#fff"/>
</svg>
