<svg id="그룹_415" data-name="그룹 415" xmlns="http://www.w3.org/2000/svg" xmlns:xlink="http://www.w3.org/1999/xlink" width="966.109" height="273.895" viewBox="0 0 966.109 273.895">
  <defs>
    <clipPath id="clip-path">
      <rect id="사각형_1049" data-name="사각형 1049" width="966.109" height="273.895" fill="#fff"/>
    </clipPath>
  </defs>
  <path id="패스_7129" data-name="패스 7129" d="M916.726,139.679l-12.638,46.043h49.166l12.637-46.043Zm49.165,0h0Z" fill="#fff"/>
  <g id="그룹_414" data-name="그룹 414">
    <g id="그룹_413" data-name="그룹 413" clip-path="url(#clip-path)">
      <path id="패스_7130" data-name="패스 7130" d="M723.733,79.183c11.193,0,17.812,7.456,17.534,15.4a19.121,19.121,0,0,1-1.244,6.364H693.986c6.235-16.218,20.467-21.761,29.747-21.761m-19.519,110.26c26.066,0,46.991-9.04,64.351-23.618l-.3-.34L734.8,139.452c-8.176,4.952-15.933,7.484-23.986,7.484-13.853,0-21.159-7.735-21.566-19.435h97.423a90.119,90.119,0,0,0,5.236-27.1c1.065-30.522-16.145-62.963-65.071-62.963-56.432,0-91.678,44.142-93.212,88.222-1.327,38.05,25.487,63.787,70.587,63.787" fill="#fff"/>
      <path id="패스_7131" data-name="패스 7131" d="M332.049,38.958l-25.916,63.827h-6.419c-29,0-44.509,15.1-52.93,46.913l-9.754,36.021H175.344l39.7-144.625h61.619l-7.885,29.139c13.83-19.647,39.35-32.346,63.275-31.275" fill="#fff"/>
      <path id="패스_7132" data-name="패스 7132" d="M944.142,38.958l-25.916,63.827h-6.419c-29.005,0-44.509,15.1-52.93,46.913l-9.759,36.021H787.432l39.7-144.625h61.619l-7.885,29.139c13.83-19.647,39.35-32.346,63.275-31.275" fill="#fff"/>
      <path id="패스_7133" data-name="패스 7133" d="M0,109.775C0,60.208,39.094,0,119.406,0c40.16,0,68.618,20.762,76.326,52.941l-55.58,23.613c-3.993-14.8-14.89-22.057-28.988-22.057-27.918,0-46,24.918-46,49.818,0,19.988,12.766,31.147,29.251,31.147,14.355,0,26.061-6.742,36.16-18.944l43.093,33.221c-18.616,23.88-45.747,39.707-85.371,39.707C36.172,189.446,0,158.562,0,109.775" fill="#fff"/>
      <path id="패스_7134" data-name="패스 7134" d="M547.221,113.852l-4.071-72.694H479.8l19.932,144.563h57.659L656.521,41.158H591.266Z" fill="#fff"/>
      <path id="패스_7135" data-name="패스 7135" d="M399.009,135.332c-1.74,6.017-9.469,17.6-23.841,18.208-11.767.5-17.35-5.956-17.233-13.842.134-9.229,9.258-15.771,22.33-16.658s21.533,2.013,21.533,2.013-1.512,5.851-2.789,10.279m.028-97.9c-20.094,0-42.039,2.538-57.91,6.826l5.716,42.033c9.893-2.777,26.451-6.168,39.707-6.168,15.487,0,22.787,5.12,22.787,14.255,0,.758-.061,1.589-.133,2.347a37.328,37.328,0,0,1-.954,4.914l-.547,1.6c-.067,0-.206-.073-.273-.073a120.947,120.947,0,0,0-33.366-4.774c-41.832,0-66.259,20.138-66.259,51.068,0,25.246,16.853,39.986,39.646,39.986,17.06,0,28.247-6.982,41.553-17.985l-.067.273-3.865,14.042h61.552L468.3,105.657a83.836,83.836,0,0,0,2.66-20.411c0-29.34-22.787-47.811-71.919-47.811" fill="#fff"/>
      <path id="패스_7136" data-name="패스 7136" d="M205.988,263.07l-1.269-18.877h-5.774l-11.174,18.86-.713-18.778h-7.053l2.081,29.333h6.139L199.1,255.787l1.35,17.821h6.221l17.808-29.333h-7.705Z" fill="#fff"/>
      <path id="패스_7137" data-name="패스 7137" d="M250.345,255.6H239.411l3.026-11.329h-6.816l-7.738,28.814-.085.315h6.816l3.108-11.492h10.934L245.548,273.4h6.817l7.738-28.815.085-.314h-6.817Z" fill="#fff"/>
      <path id="패스_7138" data-name="패스 7138" d="M283.451,244.069,263.105,273.4h7.4l4.335-6.42H286.6l.9,6.42h6.971l-4.618-29.334Zm2.339,16.81h-6.853l5.674-8.511Z" fill="#fff"/>
      <path id="패스_7139" data-name="패스 7139" d="M308.164,250.582h8.711L310.74,273.4h6.817l6.134-22.821H332.4l1.688-6.308H309.852Z" fill="#fff"/>
      <path id="패스_7140" data-name="패스 7140" d="M380.355,245.314a19.942,19.942,0,0,0-6.959-1.039H364.86l-7.738,28.814-.085.315H368a25.9,25.9,0,0,0,8.8-1.365,17.263,17.263,0,0,0,6.39-3.985,15.842,15.842,0,0,0,4.777-11.464,11.62,11.62,0,0,0-3.182-8.561,12.376,12.376,0,0,0-4.424-2.715m-11.581,21.9h-3.231l4.527-16.76h2.876a11.939,11.939,0,0,1,3.964.559,6.534,6.534,0,0,1,2.444,1.454,5.923,5.923,0,0,1,1.6,4.363,10.261,10.261,0,0,1-.719,3.833,9.327,9.327,0,0,1-2.071,3.148,10.886,10.886,0,0,1-4.119,2.538,15.83,15.83,0,0,1-5.275.865" fill="#fff"/>
      <path id="패스_7141" data-name="패스 7141" d="M425.677,247.5a12.362,12.362,0,0,0-4.215-2.734,14.684,14.684,0,0,0-5.45-.98,16.959,16.959,0,0,0-7.118,1.475,17.867,17.867,0,0,0-5.516,3.879,17.476,17.476,0,0,0-3.568,5.5,16.623,16.623,0,0,0-1.266,6.332,13.439,13.439,0,0,0,.959,5.1,12.157,12.157,0,0,0,6.928,6.846,14.677,14.677,0,0,0,5.45.98A16.966,16.966,0,0,0,419,272.42a17.886,17.886,0,0,0,5.516-3.879,17.52,17.52,0,0,0,3.569-5.5,16.676,16.676,0,0,0,1.265-6.332,13.462,13.462,0,0,0-.959-5.1,12.358,12.358,0,0,0-2.713-4.111m-13.066,20.09a8.475,8.475,0,0,1-3.054-.516,5.916,5.916,0,0,1-2.209-1.45A6.285,6.285,0,0,1,406,263.4a8.459,8.459,0,0,1-.457-2.84,10.493,10.493,0,0,1,.7-3.675,11.424,11.424,0,0,1,1.97-3.383,10.332,10.332,0,0,1,3.07-2.456,9.033,9.033,0,0,1,7.046-.436,5.918,5.918,0,0,1,2.209,1.451,6.278,6.278,0,0,1,1.343,2.223,8.468,8.468,0,0,1,.458,2.84,10.493,10.493,0,0,1-.7,3.675,11.47,11.47,0,0,1-1.97,3.383,10.339,10.339,0,0,1-3.07,2.455,8.4,8.4,0,0,1-3.992.953" fill="#fff"/>
      <path id="패스_7142" data-name="패스 7142" d="M471.539,255.859l-3.225-11.4-.05-.182h-7.533l6.019,17.6L463.659,273.4h6.815l2.939-10.845L489.4,244.275h-8.275Z" fill="#fff"/>
      <path id="패스_7143" data-name="패스 7143" d="M520.641,247.5a12.387,12.387,0,0,0-4.214-2.734,14.689,14.689,0,0,0-5.451-.98,16.964,16.964,0,0,0-7.119,1.475,17.869,17.869,0,0,0-5.515,3.879,17.5,17.5,0,0,0-3.569,5.5,16.638,16.638,0,0,0-1.265,6.332,13.446,13.446,0,0,0,.959,5.1,12.151,12.151,0,0,0,6.927,6.846,14.684,14.684,0,0,0,5.452.98,16.973,16.973,0,0,0,7.118-1.475,17.9,17.9,0,0,0,5.515-3.879,17.5,17.5,0,0,0,3.569-5.5,16.675,16.675,0,0,0,1.265-6.332,13.462,13.462,0,0,0-.959-5.1,12.369,12.369,0,0,0-2.713-4.111m-13.066,20.09a8.475,8.475,0,0,1-3.054-.516,5.9,5.9,0,0,1-2.209-1.451,6.256,6.256,0,0,1-1.343-2.223,8.459,8.459,0,0,1-.458-2.84,10.485,10.485,0,0,1,.7-3.675,11.449,11.449,0,0,1,1.97-3.383,10.339,10.339,0,0,1,3.07-2.456,9.033,9.033,0,0,1,7.046-.436,5.928,5.928,0,0,1,2.209,1.45,6.315,6.315,0,0,1,1.343,2.224,8.458,8.458,0,0,1,.458,2.84,10.473,10.473,0,0,1-.7,3.675,11.409,11.409,0,0,1-1.97,3.383,10.321,10.321,0,0,1-3.069,2.455,8.406,8.406,0,0,1-3.992.953" fill="#fff"/>
      <path id="패스_7144" data-name="패스 7144" d="M554.29,260.617a11.259,11.259,0,0,1-2.712,5.2,6.263,6.263,0,0,1-4.489,1.731,4.733,4.733,0,0,1-3.542-1.233,4.506,4.506,0,0,1-1.2-3.261,9.886,9.886,0,0,1,.118-1.6,14.34,14.34,0,0,1,.322-1.448l4.131-15.419.085-.315h-6.817l-4.016,15.03a21.371,21.371,0,0,0-.517,2.378,14.652,14.652,0,0,0-.187,2.269,11.031,11.031,0,0,0,.755,4.185,8.3,8.3,0,0,0,2.193,3.119,9.813,9.813,0,0,0,3.461,1.931,14.574,14.574,0,0,0,4.557.667,16.46,16.46,0,0,0,5.668-.895,11.586,11.586,0,0,0,4.242-2.7,18.776,18.776,0,0,0,4.481-8.619l4.666-17.369h-6.816Z" fill="#fff"/>
      <path id="패스_7145" data-name="패스 7145" d="M603.158,253.265a10.771,10.771,0,0,1,3.157-2.318,8.384,8.384,0,0,1,3.675-.856,7.185,7.185,0,0,1,4.033,1.022,10.825,10.825,0,0,1,2.8,2.8l.144.2,5.589-3.918-.122-.2a13.054,13.054,0,0,0-4.606-4.543,13.862,13.862,0,0,0-7.059-1.67,17.065,17.065,0,0,0-6.91,1.412,17.882,17.882,0,0,0-5.587,3.815,18.457,18.457,0,0,0-3.752,5.535,16.317,16.317,0,0,0-1.382,6.624,13.261,13.261,0,0,0,1.015,5.273A11.465,11.465,0,0,0,597,270.455,12.834,12.834,0,0,0,601.341,273a16.372,16.372,0,0,0,5.5.895,14.555,14.555,0,0,0,6.282-1.252,19.016,19.016,0,0,0,4.725-3.191l.188-.173-4.428-4.6-.178.147a16.706,16.706,0,0,1-3.062,2.035,7.758,7.758,0,0,1-3.487.73,7.549,7.549,0,0,1-2.732-.474,6.25,6.25,0,0,1-2.124-1.357,6.132,6.132,0,0,1-1.4-2.1,7.272,7.272,0,0,1-.493-2.729,10.973,10.973,0,0,1,.82-4.22,11.221,11.221,0,0,1,2.2-3.44" fill="#fff"/>
      <path id="패스_7146" data-name="패스 7146" d="M651.8,245a18.255,18.255,0,0,0-5.5-.728h-10.62l-7.738,28.815-.085.314h6.815l2.454-9.161h4.355l4.417,9.161h7.718l-4.907-9.854a12.882,12.882,0,0,0,6.736-3.706,9.777,9.777,0,0,0,2.393-6.689,8.075,8.075,0,0,0-2.281-5.944A9.244,9.244,0,0,0,651.8,245m-10.948,5.457h5.085c1.912,0,3.256.373,3.994,1.107a2.814,2.814,0,0,1,.827,2.1,3.654,3.654,0,0,1-.5,1.926,4.244,4.244,0,0,1-1.39,1.383,7.153,7.153,0,0,1-2.135.864,11.555,11.555,0,0,1-2.682.3h-5.277Z" fill="#fff"/>
      <path id="패스_7147" data-name="패스 7147" d="M682.331,244.069,661.985,273.4h7.4l4.335-6.42h11.756l.9,6.42h6.972l-4.618-29.334Zm2.339,16.81h-6.854l5.675-8.511Z" fill="#fff"/>
      <path id="패스_7148" data-name="패스 7148" d="M717.444,263.737l-1.914-19.462h-7.259l3.786,29.333h5.916l19.515-29.333h-7.681Z" fill="#fff"/>
      <path id="패스_7149" data-name="패스 7149" d="M740.665,273.089l-.085.314h22.111l1.649-6.1H748.962l1.5-5.553h13.291l1.651-6.021h-13.3l1.421-5.349h15.132l1.648-6.1H748.4Z" fill="#fff"/>
      <path id="패스_7150" data-name="패스 7150" d="M797.654,248.694a7.537,7.537,0,0,0-1.839-2.454,8.939,8.939,0,0,0-2.944-1.705,11.63,11.63,0,0,0-3.95-.628,15.366,15.366,0,0,0-5.467,1.018,12.993,12.993,0,0,0-4.692,3.065l-.154.157,3.572,4.51.2-.173a10.034,10.034,0,0,1,2.772-1.736,7.635,7.635,0,0,1,2.911-.616,3.813,3.813,0,0,1,2.417.618,2.031,2.031,0,0,1,.728,1.669,2.918,2.918,0,0,1-1.968,2.618,16.69,16.69,0,0,1-5.98,1.3l-.08.006-.384.319-.865,7.005h4.622l1.2-2.889a15.766,15.766,0,0,0,7.817-3.123,7.657,7.657,0,0,0,2.725-6.059,6.876,6.876,0,0,0-.637-2.906" fill="#fff"/>
      <path id="패스_7151" data-name="패스 7151" d="M778.166,273.4h7.143l1.893-7.044H780.06Z" fill="#fff"/>
    </g>
  </g>
</svg>
