<svg width="1371" height="136" viewBox="0 0 1371 136" fill="none" xmlns="http://www.w3.org/2000/svg">
<path d="M9.40234 108.001H1.63867V26.4824H9.40234V108.001ZM10.9551 13.2842H0.0859375V1.63867H10.9551V13.2842Z" fill="#4E4E4E"/>
<path d="M23.3643 108.001V26.4824H31.9819C31.9302 29.5879 31.6455 33.0815 31.1279 36.9634C30.6621 40.8452 29.7563 46.2021 28.4106 53.0342L30.041 53.4224C31.6455 46.9526 33.9487 41.7251 36.9507 37.7397C39.9526 33.7026 43.8604 30.623 48.6738 28.501C53.5391 26.3789 59.5947 25.0073 66.8408 24.3862L69.3252 31.6064C59.3359 32.0723 51.624 33.4697 46.1895 35.7988C40.7549 38.1279 36.873 41.7769 34.5439 46.7456C32.2666 51.7144 31.1279 58.6499 31.1279 67.5522V108.001H23.3643Z" fill="#4E4E4E"/>
<path d="M84.0635 108.001H76.2998V26.4824H84.0635V108.001ZM85.6162 13.2842H74.7471V1.63867H85.6162V13.2842Z" fill="#4E4E4E"/>
<path d="M98.0254 108.001V26.4824H106.643C106.591 29.4844 106.307 32.978 105.789 36.9634C105.271 40.897 104.443 45.9434 103.305 52.1025L104.935 52.4907C107.575 43.3296 111.948 36.4458 118.056 31.8394C124.215 27.2329 131.668 24.9297 140.415 24.9297C149.783 24.9297 156.952 27.207 161.92 31.7617C166.889 36.3164 169.374 42.9673 169.374 51.7144V108.001H161.61V52.5684C161.61 44.5459 159.695 38.6196 155.865 34.7896C152.086 30.9595 146.393 29.0444 138.785 29.0444C132.108 29.0444 126.259 30.6748 121.239 33.9355C116.27 37.1963 112.44 41.6992 109.749 47.4443C107.109 53.1895 105.789 59.6851 105.789 66.9312V108.001H98.0254Z" fill="#4E4E4E"/>
<path d="M203.288 109.554C195.68 109.554 189.805 108.001 185.665 104.896C181.524 101.79 179.454 97.3647 179.454 91.6196V91.3091C179.454 86.5991 180.825 82.6396 183.568 79.4307C186.363 76.1699 190.426 73.4785 195.757 71.3564C201.14 69.1826 208.05 67.2676 216.486 65.6113L240.398 60.7979V51.792C240.398 43.5107 238.406 37.5068 234.42 33.7803C230.435 30.0537 224.146 28.1904 215.555 28.1904C206.549 28.1904 199.769 30.2607 195.214 34.4014C190.711 38.4902 188.459 44.7529 188.459 53.1895C188.459 54.6387 188.485 55.7515 188.537 56.5278L180.773 53.5C180.308 44.3389 183.103 37.2998 189.158 32.3828C195.214 27.4141 204.039 24.9297 215.632 24.9297C226.553 24.9297 234.705 27.1294 240.088 31.5288C245.471 35.9282 248.162 42.5273 248.162 51.3262V98.0635C248.162 102.566 249.767 104.818 252.976 104.818C254.735 104.818 256.806 104.274 259.187 103.188L258.721 106.215C256.599 108.441 253.881 109.554 250.569 109.554C247.101 109.554 244.565 108.7 242.96 106.992C241.408 105.232 240.631 102.463 240.631 98.6846C240.631 95.3721 241.227 91.0244 242.417 85.6416L240.787 85.1758C238.872 90.248 236.051 94.6216 232.324 98.2964C228.598 101.971 224.25 104.766 219.281 106.681C214.312 108.596 208.981 109.554 203.288 109.554ZM206.316 105.051C212.32 105.051 217.936 103.653 223.163 100.858C228.391 98.0635 232.557 94.2075 235.663 89.2905C238.82 84.3735 240.398 78.8872 240.398 72.8315V64.3691L219.048 68.5615C208.179 70.6318 200.234 73.375 195.214 76.791C190.193 80.207 187.683 84.71 187.683 90.2998V90.6104C187.683 95.2168 189.288 98.7881 192.497 101.324C195.757 103.809 200.364 105.051 206.316 105.051Z" fill="#4E4E4E"/>
<path d="M334.404 135.562C319.963 135.562 307.334 132.741 296.517 127.1C285.7 121.51 277.341 113.591 271.44 103.343C265.592 93.043 262.667 81.0352 262.667 67.3193V67.1641C262.667 53.6553 265.54 41.8545 271.285 31.7617C277.082 21.6172 285.286 13.8018 295.896 8.31543C306.506 2.8291 318.928 0.0859375 333.162 0.0859375C346.929 0.0859375 358.963 2.88086 369.263 8.4707C379.614 14.0605 387.585 22.0054 393.175 32.3052C398.816 42.5532 401.637 54.561 401.637 68.3286V68.4839C401.637 76.9204 400.576 84.2183 398.454 90.3774C396.332 96.5366 393.201 101.272 389.06 104.585C384.971 107.897 380.002 109.554 374.154 109.554C368.719 109.554 364.734 108.337 362.198 105.905C359.662 103.42 358.394 99.668 358.394 94.6475C358.394 92.2666 358.73 89.2646 359.403 85.6416L357.772 85.1758C355.857 90.248 353.062 94.6216 349.388 98.2964C345.765 101.971 341.469 104.766 336.5 106.681C331.583 108.596 326.278 109.554 320.584 109.554C313.028 109.554 307.153 108.001 302.961 104.896C298.82 101.79 296.75 97.3647 296.75 91.6196V91.3091C296.75 86.5991 298.122 82.6396 300.865 79.4307C303.608 76.1699 307.619 73.4785 312.898 71.3564C318.229 69.1826 325.087 67.2676 333.472 65.6113L357.384 60.7979V51.792C357.384 43.5107 355.392 37.5068 351.406 33.7803C347.421 30.0537 341.132 28.1904 332.541 28.1904C323.535 28.1904 316.754 30.2607 312.2 34.4014C307.697 38.4902 305.445 44.7529 305.445 53.1895C305.445 54.6387 305.471 55.7515 305.523 56.5278L297.759 53.5C297.293 44.3389 300.088 37.2998 306.144 32.3828C312.2 27.4141 321.024 24.9297 332.618 24.9297C343.539 24.9297 351.691 27.1294 357.074 31.5288C362.457 35.9282 365.148 42.5273 365.148 51.3262V95.2686C365.148 98.6846 365.976 101.221 367.632 102.877C369.289 104.481 371.825 105.284 375.241 105.284C379.795 105.284 383.703 103.86 386.964 101.014C390.276 98.167 392.787 94.0005 394.495 88.5142C396.254 83.0278 397.134 76.3511 397.134 68.4839V68.3286C397.134 55.3374 394.521 43.9766 389.293 34.2461C384.065 24.5156 376.612 17.0366 366.934 11.8091C357.307 6.52979 346.049 3.89014 333.162 3.89014C319.86 3.89014 308.24 6.47803 298.303 11.6538C288.365 16.8296 280.679 24.1792 275.245 33.7026C269.862 43.2261 267.17 54.3799 267.17 67.1641V67.3193C267.17 80.2588 269.939 91.5938 275.478 101.324C281.016 111.003 288.857 118.482 299.001 123.761C309.146 129.092 320.947 131.758 334.404 131.758C343.254 131.758 352.027 130.697 360.723 128.575C369.418 126.504 376.819 123.684 382.927 120.112L384.324 123.994C378.217 127.514 370.66 130.309 361.654 132.379C352.7 134.501 343.617 135.562 334.404 135.562ZM323.457 105.051C329.461 105.051 335.051 103.653 340.227 100.858C345.454 98.0635 349.621 94.2075 352.726 89.2905C355.832 84.3735 357.384 78.8872 357.384 72.8315V64.3691L336.034 68.5615C325.269 70.6318 317.401 73.375 312.433 76.791C307.516 80.207 305.057 84.71 305.057 90.2998V90.5327C305.057 95.1909 306.636 98.7881 309.793 101.324C313.002 103.809 317.557 105.051 323.457 105.051Z" fill="#4E4E4E"/>
<path d="M412.708 14.1828H429.887L459.755 87.1118H460.854L490.722 14.1828H507.901V108.001H494.432V40.1111H493.562L465.893 107.864H454.716L427.046 40.0652H426.176V108.001H412.708V14.1828Z" fill="#4E4E4E"/>
<path d="M522.906 108.001H507.88L541.642 14.1828H557.996L591.758 108.001H576.732L550.208 31.224H549.475L522.906 108.001ZM525.425 71.2616H574.167V83.1721H525.425V71.2616Z" fill="#4E4E4E"/>
<path d="M591.806 108.001V14.1828H625.247C632.515 14.1828 638.547 15.4349 643.342 17.9392C648.167 20.4434 651.771 23.9097 654.153 28.338C656.535 32.7357 657.726 37.8206 657.726 43.5926C657.726 49.3341 656.52 54.3884 654.107 58.7556C651.725 63.0922 648.121 66.4669 643.296 68.8795C638.501 71.2922 632.469 72.4985 625.201 72.4985H599.868V60.3131H623.918C628.499 60.3131 632.225 59.6565 635.096 58.3433C637.997 57.0301 640.12 55.1214 641.463 52.6171C642.807 50.1128 643.479 47.1047 643.479 43.5926C643.479 40.05 642.792 36.9807 641.418 34.3849C640.074 31.789 637.951 29.8039 635.05 28.4296C632.179 27.0248 628.408 26.3224 623.735 26.3224H605.961V108.001H591.806ZM638.119 65.6729L661.299 108.001H645.174L622.452 65.6729H638.119Z" fill="#4E4E4E"/>
<path d="M661.45 108.001V14.1828H675.605V58.9846H676.751L716.101 14.1828H733.921L696.082 56.4193L734.059 108.001H717.017L686.691 66.0851L675.605 78.8202V108.001H661.45Z" fill="#4E4E4E"/>
<path d="M810.449 61.0919C810.449 71.1089 808.616 79.7211 804.951 86.9285C801.287 94.1054 796.263 99.6331 789.88 103.512C783.528 107.36 776.305 109.284 768.212 109.284C760.088 109.284 752.835 107.36 746.452 103.512C740.1 99.6331 735.092 94.0901 731.427 86.8827C727.762 79.6753 725.93 71.0784 725.93 61.0919C725.93 51.0748 727.762 42.4779 731.427 35.301C735.092 28.0937 740.1 22.566 746.452 18.7179C752.835 14.8394 760.088 12.9001 768.212 12.9001C776.305 12.9001 783.528 14.8394 789.88 18.7179C796.263 22.566 801.287 28.0937 804.951 35.301C808.616 42.4779 810.449 51.0748 810.449 61.0919ZM796.431 61.0919C796.431 53.4569 795.194 47.0283 792.72 41.806C790.277 36.5532 786.918 32.583 782.642 29.8955C778.397 27.1775 773.587 25.8184 768.212 25.8184C762.806 25.8184 757.981 27.1775 753.736 29.8955C749.491 32.583 746.132 36.5532 743.658 41.806C741.215 47.0283 739.993 53.4569 739.993 61.0919C739.993 68.7268 741.215 75.1707 743.658 80.4236C746.132 85.6459 749.491 89.616 753.736 92.3341C757.981 95.0216 762.806 96.3653 768.212 96.3653C773.587 96.3653 778.397 95.0216 782.642 92.3341C786.918 89.616 790.277 85.6459 792.72 80.4236C795.194 75.1707 796.431 68.7268 796.431 61.0919Z" fill="#4E4E4E"/>
<path d="M818.135 14.1828L844.247 90.5933H845.301L871.412 14.1828H886.713L852.951 108.001H836.597L802.835 14.1828H818.135Z" fill="#4E4E4E"/>
<path d="M937.93 38.8284C937.442 34.4917 935.426 31.1324 931.883 28.7503C928.341 26.3376 923.882 25.1313 918.507 25.1313C914.659 25.1313 911.33 25.7421 908.52 26.9637C905.711 28.1547 903.527 29.8039 901.97 31.9111C900.443 33.9878 899.679 36.3547 899.679 39.0116C899.679 41.241 900.198 43.165 901.237 44.7836C902.306 46.4023 903.695 47.7613 905.405 48.8607C907.146 49.9296 909.009 50.8305 910.994 51.5635C912.979 52.2659 914.888 52.8461 916.72 53.3042L925.882 55.6863C928.875 56.4193 931.944 57.4118 935.09 58.664C938.236 59.9161 941.152 61.5653 943.84 63.6114C946.527 65.6576 948.695 68.1924 950.345 71.2158C952.024 74.2393 952.864 77.8582 952.864 82.0727C952.864 87.3866 951.49 92.105 948.741 96.2279C946.023 100.351 942.068 103.603 936.877 105.985C931.715 108.367 925.47 109.559 918.14 109.559C911.116 109.559 905.039 108.444 899.908 106.214C894.777 103.985 890.762 100.824 887.86 96.7318C884.959 92.6089 883.356 87.7226 883.05 82.0727H897.251C897.526 85.4626 898.625 88.2875 900.549 90.5475C902.504 92.7769 904.993 94.4413 908.016 95.5407C911.07 96.6096 914.415 97.1441 918.049 97.1441C922.049 97.1441 925.607 96.518 928.722 95.2659C931.868 93.9832 934.342 92.2119 936.144 89.952C937.945 87.6615 938.846 84.9893 938.846 81.9353C938.846 79.1562 938.052 76.8809 936.464 75.1096C934.907 73.3383 932.784 71.8724 930.097 70.7119C927.44 69.5514 924.432 68.5283 921.072 67.6427L909.986 64.6192C902.473 62.5731 896.518 59.5649 892.121 55.5947C887.753 51.6246 885.57 46.3717 885.57 39.8362C885.57 34.4307 887.036 29.7123 889.967 25.681C892.899 21.6498 896.869 18.5194 901.878 16.29C906.887 14.0301 912.536 12.9001 918.828 12.9001C925.18 12.9001 930.784 14.0148 935.64 16.2442C940.526 18.4736 944.374 21.5429 947.184 25.452C949.993 29.3305 951.459 33.7893 951.581 38.8284H937.93Z" fill="#4E4E4E"/>
<path d="M956.279 108.001V14.1828H970.435V58.9846H971.58L1010.93 14.1828H1028.75L990.911 56.4193L1028.89 108.001H1011.85L981.52 66.0851L970.435 78.8202V108.001H956.279Z" fill="#4E4E4E"/>
<path d="M1036.37 108.001H1021.34L1055.1 14.1828H1071.46L1105.22 108.001H1090.19L1063.67 31.224H1062.94L1036.37 108.001ZM1038.89 71.2616H1087.63V83.1721H1038.89V71.2616Z" fill="#4E4E4E"/>
<path d="M1119.42 14.1828V108.001H1105.27V14.1828H1119.42Z" fill="#4E4E4E"/>
<path d="M1134.46 108.001H1119.44L1153.2 14.1828H1169.55L1203.32 108.001H1188.29L1161.77 31.224H1161.03L1134.46 108.001ZM1136.98 71.2616H1185.72V83.1721H1136.98V71.2616Z" fill="#4E4E4E"/>
<path d="M1211.29 108.871C1208.78 108.871 1206.63 107.986 1204.83 106.214C1203.03 104.413 1202.13 102.244 1202.13 99.7094C1202.13 97.2052 1203.03 95.0674 1204.83 93.2961C1206.63 91.4942 1208.78 90.5933 1211.29 90.5933C1213.79 90.5933 1215.95 91.4942 1217.75 93.2961C1219.55 95.0674 1220.45 97.2052 1220.45 99.7094C1220.45 101.389 1220.02 102.931 1219.17 104.336C1218.34 105.71 1217.24 106.81 1215.87 107.634C1214.5 108.459 1212.97 108.871 1211.29 108.871Z" fill="#4E4E4E"/>
<path d="M1226.4 108.001V14.1828H1259.84C1267.11 14.1828 1273.14 15.4349 1277.93 17.9392C1282.76 20.4434 1286.36 23.9097 1288.74 28.338C1291.13 32.7357 1292.32 37.8206 1292.32 43.5926C1292.32 49.3341 1291.11 54.3884 1288.7 58.7556C1286.32 63.0922 1282.71 66.4669 1277.89 68.8795C1273.09 71.2922 1267.06 72.4985 1259.79 72.4985H1234.46V60.3131H1258.51C1263.09 60.3131 1266.82 59.6565 1269.69 58.3433C1272.59 57.0301 1274.71 55.1214 1276.05 52.6171C1277.4 50.1128 1278.07 47.1047 1278.07 43.5926C1278.07 40.05 1277.38 36.9807 1276.01 34.3849C1274.66 31.789 1272.54 29.8039 1269.64 28.4296C1266.77 27.0248 1263 26.3224 1258.33 26.3224H1240.55V108.001H1226.4ZM1272.71 65.6729L1295.89 108.001H1279.76L1257.04 65.6729H1272.71Z" fill="#4E4E4E"/>
<path d="M1356.37 14.1828H1370.57V75.8884C1370.57 82.4545 1369.03 88.2723 1365.95 93.3419C1362.86 98.381 1358.53 102.351 1352.94 105.252C1347.35 108.123 1340.8 109.559 1333.28 109.559C1325.8 109.559 1319.27 108.123 1313.68 105.252C1308.09 102.351 1303.75 98.381 1300.67 93.3419C1297.58 88.2723 1296.04 82.4545 1296.04 75.8884V14.1828H1310.2V74.7432C1310.2 78.9882 1311.13 82.7599 1312.99 86.0582C1314.88 89.3564 1317.56 91.9523 1321.01 93.8458C1324.46 95.7087 1328.55 96.6402 1333.28 96.6402C1338.05 96.6402 1342.16 95.7087 1345.61 93.8458C1349.09 91.9523 1351.75 89.3564 1353.58 86.0582C1355.44 82.7599 1356.37 78.9882 1356.37 74.7432V14.1828Z" fill="#4E4E4E"/>
</svg>
